<mxfile host="65bd71144e" scale="2" border="0">
    <diagram id="oChlfzT7mLXHvT8j3TfS" name="第 1 页">
        <mxGraphModel dx="799" dy="654" grid="1" gridSize="10" guides="1" tooltips="1" connect="1" arrows="1" fold="1" page="1" pageScale="1" pageWidth="1200" pageHeight="1920" background="#FFFFFF" math="0" shadow="0">
            <root>
                <mxCell id="0"/>
                <mxCell id="1" parent="0"/>
                <mxCell id="16" style="edgeStyle=none;html=1;exitX=0.5;exitY=1;exitDx=0;exitDy=0;align=center;" parent="1" source="2" edge="1">
                    <mxGeometry relative="1" as="geometry">
                        <mxPoint x="110" y="230" as="targetPoint"/>
                    </mxGeometry>
                </mxCell>
                <mxCell id="2" value="从原有agents中采样agent进行测试（按照初始环境相似度顺序采样）" style="whiteSpace=wrap;html=1;fillColor=#f5f5f5;fontColor=#333333;strokeColor=#666666;align=center;" parent="1" vertex="1">
                    <mxGeometry x="50" y="140" width="120" height="60" as="geometry"/>
                </mxCell>
                <mxCell id="8" style="edgeStyle=none;html=1;exitX=0.5;exitY=1;exitDx=0;exitDy=0;align=center;" parent="1" source="6" edge="1">
                    <mxGeometry relative="1" as="geometry">
                        <mxPoint x="110" y="320" as="targetPoint"/>
                    </mxGeometry>
                </mxCell>
                <mxCell id="6" value="使用DDM(漂移扩散模型)建模发现决策过程" style="whiteSpace=wrap;html=1;fillColor=#f5f5f5;fontColor=#333333;strokeColor=#666666;align=center;" parent="1" vertex="1">
                    <mxGeometry x="50" y="230" width="120" height="60" as="geometry"/>
                </mxCell>
                <mxCell id="25" style="edgeStyle=none;html=1;exitX=1;exitY=0.5;exitDx=0;exitDy=0;entryX=0;entryY=0.5;entryDx=0;entryDy=0;align=center;" parent="1" source="10" target="12" edge="1">
                    <mxGeometry relative="1" as="geometry"/>
                </mxCell>
                <mxCell id="26" style="edgeStyle=elbowEdgeStyle;html=1;exitX=0.5;exitY=1;exitDx=0;exitDy=0;elbow=vertical;align=center;" parent="1" source="10" edge="1">
                    <mxGeometry relative="1" as="geometry">
                        <mxPoint x="20" y="170" as="targetPoint"/>
                        <Array as="points">
                            <mxPoint x="60" y="400"/>
                        </Array>
                    </mxGeometry>
                </mxCell>
                <mxCell id="10" value="根据每次测试的结果得到&quot;证据&quot;值，达到阈值则决定是否发现" style="whiteSpace=wrap;html=1;fillColor=#f5f5f5;fontColor=#333333;strokeColor=#666666;align=center;" parent="1" vertex="1">
                    <mxGeometry x="50" y="320" width="120" height="60" as="geometry"/>
                </mxCell>
                <mxCell id="18" style="edgeStyle=none;html=1;exitX=0.5;exitY=1;exitDx=0;exitDy=0;entryX=0.5;entryY=0;entryDx=0;entryDy=0;align=center;" parent="1" source="12" edge="1" target="19">
                    <mxGeometry relative="1" as="geometry">
                        <mxPoint x="290" y="420" as="targetPoint"/>
                    </mxGeometry>
                </mxCell>
                <mxCell id="12" value="进入发现新状态模式，新建一个agent1进行局部训练" style="whiteSpace=wrap;html=1;fillColor=#f5f5f5;fontColor=#333333;strokeColor=#666666;align=center;" parent="1" vertex="1">
                    <mxGeometry x="255" y="320" width="120" height="60" as="geometry"/>
                </mxCell>
                <mxCell id="21" style="edgeStyle=none;html=1;exitX=0.5;exitY=1;exitDx=0;exitDy=0;entryX=0.5;entryY=0;entryDx=0;entryDy=0;align=center;" parent="1" source="19" target="20" edge="1">
                    <mxGeometry relative="1" as="geometry"/>
                </mxCell>
                <mxCell id="19" value="直到到达已知状态，分析序列，寻找最特殊的突变" style="whiteSpace=wrap;html=1;fillColor=#f5f5f5;fontColor=#333333;strokeColor=#666666;align=center;" parent="1" vertex="1">
                    <mxGeometry x="255" y="420" width="120" height="60" as="geometry"/>
                </mxCell>
                <mxCell id="31" style="edgeStyle=elbowEdgeStyle;elbow=vertical;html=1;exitX=0;exitY=0.5;exitDx=0;exitDy=0;align=center;" parent="1" source="20" edge="1">
                    <mxGeometry relative="1" as="geometry">
                        <mxPoint x="20" y="400" as="targetPoint"/>
                        <Array as="points">
                            <mxPoint x="110" y="560"/>
                        </Array>
                    </mxGeometry>
                </mxCell>
                <mxCell id="33" style="edgeStyle=elbowEdgeStyle;elbow=vertical;html=1;exitX=0.5;exitY=1;exitDx=0;exitDy=0;align=center;" parent="1" source="20" edge="1">
                    <mxGeometry relative="1" as="geometry">
                        <mxPoint x="315" y="630" as="targetPoint"/>
                    </mxGeometry>
                </mxCell>
                <mxCell id="20" value="根据测试结果与突变特殊程度，决定是否拒绝此次新状态发现" style="rhombus;whiteSpace=wrap;html=1;fillColor=#f5f5f5;fontColor=#333333;strokeColor=#666666;align=center;" parent="1" vertex="1">
                    <mxGeometry x="225" y="520" width="180" height="80" as="geometry"/>
                </mxCell>
                <mxCell id="23" value="达到发现阈值" style="text;html=1;align=center;verticalAlign=middle;resizable=0;points=[];autosize=1;strokeColor=none;fillColor=none;" parent="1" vertex="1">
                    <mxGeometry x="160" y="320" width="100" height="30" as="geometry"/>
                </mxCell>
                <mxCell id="29" style="edgeStyle=none;html=1;entryX=0;entryY=0.5;entryDx=0;entryDy=0;align=center;" parent="1" edge="1">
                    <mxGeometry relative="1" as="geometry">
                        <mxPoint x="20" y="170" as="sourcePoint"/>
                        <mxPoint x="50" y="169.5" as="targetPoint"/>
                    </mxGeometry>
                </mxCell>
                <mxCell id="30" value="达到拒绝发现阈值" style="text;html=1;align=center;verticalAlign=middle;resizable=0;points=[];autosize=1;strokeColor=none;fillColor=none;" parent="1" vertex="1">
                    <mxGeometry x="45" y="400" width="120" height="30" as="geometry"/>
                </mxCell>
                <mxCell id="32" value="拒绝此次发现" style="text;html=1;align=center;verticalAlign=middle;resizable=0;points=[];autosize=1;strokeColor=none;fillColor=none;" parent="1" vertex="1">
                    <mxGeometry x="120" y="560" width="100" height="30" as="geometry"/>
                </mxCell>
                <mxCell id="34" value="接受此次发现" style="text;html=1;align=center;verticalAlign=middle;resizable=0;points=[];autosize=1;strokeColor=none;fillColor=none;" parent="1" vertex="1">
                    <mxGeometry x="370" y="600" width="100" height="30" as="geometry"/>
                </mxCell>
                <mxCell id="35" value="更新图结构，继续训练agent（整体训练）" style="whiteSpace=wrap;html=1;fillColor=#f5f5f5;fontColor=#333333;strokeColor=#666666;align=center;" parent="1" vertex="1">
                    <mxGeometry x="255" y="630" width="120" height="60" as="geometry"/>
                </mxCell>
            </root>
        </mxGraphModel>
    </diagram>
</mxfile>